<svg width="71" height="70" viewBox="0 0 71 70" fill="none" xmlns="http://www.w3.org/2000/svg">
<path d="M50 25C50 38.8071 38.8071 50 25 50C11.1929 50 0 38.8071 0 25C0 11.1929 11.1929 0 25 0C38.8071 0 50 11.1929 50 25ZM4.23251 25C4.23251 36.4696 13.5304 45.7675 25 45.7675C36.4696 45.7675 45.7675 36.4696 45.7675 25C45.7675 13.5304 36.4696 4.23251 25 4.23251C13.5304 4.23251 4.23251 13.5304 4.23251 25Z" fill="#EA580C"/>
<path d="M71 45C71 58.8071 59.8071 70 46 70C32.1929 70 21 58.8071 21 45C21 31.1929 32.1929 20 46 20C59.8071 20 71 31.1929 71 45ZM25.2325 45C25.2325 56.4696 34.5304 65.7675 46 65.7675C57.4696 65.7675 66.7675 56.4696 66.7675 45C66.7675 33.5304 57.4696 24.2325 46 24.2325C34.5304 24.2325 25.2325 33.5304 25.2325 45Z" fill="#EA580C"/>
</svg>
